<svg xmlns="http://www.w3.org/2000/svg" version="1.1" xmlns:xlink="http://www.w3.org/1999/xlink" xmlns:svgjs="http://svgjs.com/svgjs" width="1457" height="800" preserveAspectRatio="none" viewBox="0 0 1457 800"><g mask="url(&quot;#SvgjsMask1544&quot;)" fill="none"><rect width="1457" height="800" x="0" y="0" fill="rgba(191, 101, 101, 1)"></rect><use xlink:href="#SvgjsSymbol1551" x="0" y="0"></use><use xlink:href="#SvgjsSymbol1551" x="0" y="720"></use><use xlink:href="#SvgjsSymbol1551" x="720" y="0"></use><use xlink:href="#SvgjsSymbol1551" x="720" y="720"></use><use xlink:href="#SvgjsSymbol1551" x="1440" y="0"></use><use xlink:href="#SvgjsSymbol1551" x="1440" y="720"></use></g><defs><mask id="SvgjsMask1544"><rect width="1457" height="800" fill="#ffffff"></rect></mask><path d="M-1 0 a1 1 0 1 0 2 0 a1 1 0 1 0 -2 0z" id="SvgjsPath1547"></path><path d="M-3 0 a3 3 0 1 0 6 0 a3 3 0 1 0 -6 0z" id="SvgjsPath1546"></path><path d="M-5 0 a5 5 0 1 0 10 0 a5 5 0 1 0 -10 0z" id="SvgjsPath1550"></path><path d="M2 -2 L-2 2z" id="SvgjsPath1545"></path><path d="M6 -6 L-6 6z" id="SvgjsPath1549"></path><path d="M30 -30 L-30 30z" id="SvgjsPath1548"></path></defs><symbol id="SvgjsSymbol1551"><use xlink:href="#SvgjsPath1545" x="30" y="30" stroke="rgba(0, 0, 0, 1)"></use><use xlink:href="#SvgjsPath1546" x="30" y="90" stroke="rgba(0, 0, 0, 1)"></use><use xlink:href="#SvgjsPath1547" x="30" y="150" stroke="rgba(0, 0, 0, 1)"></use><use xlink:href="#SvgjsPath1545" x="30" y="210" stroke="rgba(0, 0, 0, 1)"></use><use xlink:href="#SvgjsPath1545" x="30" y="270" stroke="rgba(0, 0, 0, 1)"></use><use xlink:href="#SvgjsPath1548" x="30" y="330" stroke="rgba(0, 0, 0, 1)" stroke-width="3"></use><use xlink:href="#SvgjsPath1549" x="30" y="390" stroke="rgba(0, 0, 0, 1)"></use><use xlink:href="#SvgjsPath1546" x="30" y="450" stroke="rgba(0, 0, 0, 1)"></use><use xlink:href="#SvgjsPath1545" x="30" y="510" stroke="rgba(0, 0, 0, 1)"></use><use xlink:href="#SvgjsPath1550" x="30" y="570" stroke="rgba(0, 0, 0, 1)"></use><use xlink:href="#SvgjsPath1548" x="30" y="630" stroke="rgba(0, 0, 0, 1)" stroke-width="3"></use><use xlink:href="#SvgjsPath1550" x="30" y="690" stroke="rgba(0, 0, 0, 1)"></use><use xlink:href="#SvgjsPath1545" x="90" y="30" stroke="rgba(0, 0, 0, 1)"></use><use xlink:href="#SvgjsPath1546" x="90" y="90" stroke="rgba(0, 0, 0, 1)"></use><use xlink:href="#SvgjsPath1549" x="90" y="150" stroke="rgba(0, 0, 0, 1)"></use><use xlink:href="#SvgjsPath1549" x="90" y="210" stroke="rgba(0, 0, 0, 1)"></use><use xlink:href="#SvgjsPath1546" x="90" y="270" stroke="rgba(0, 0, 0, 1)"></use><use xlink:href="#SvgjsPath1549" x="90" y="330" stroke="rgba(0, 0, 0, 1)"></use><use xlink:href="#SvgjsPath1550" x="90" y="390" stroke="rgba(0, 0, 0, 1)"></use><use xlink:href="#SvgjsPath1549" x="90" y="450" stroke="rgba(0, 0, 0, 1)"></use><use xlink:href="#SvgjsPath1550" x="90" y="510" stroke="rgba(0, 0, 0, 1)"></use><use xlink:href="#SvgjsPath1550" x="90" y="570" stroke="rgba(0, 0, 0, 1)"></use><use xlink:href="#SvgjsPath1549" x="90" y="630" stroke="rgba(0, 0, 0, 1)"></use><use xlink:href="#SvgjsPath1550" x="90" y="690" stroke="rgba(0, 0, 0, 1)"></use><use xlink:href="#SvgjsPath1550" x="150" y="30" stroke="rgba(0, 0, 0, 1)"></use><use xlink:href="#SvgjsPath1545" x="150" y="90" stroke="rgba(0, 0, 0, 1)"></use><use xlink:href="#SvgjsPath1550" x="150" y="150" stroke="rgba(0, 0, 0, 1)"></use><use xlink:href="#SvgjsPath1550" x="150" y="210" stroke="rgba(0, 0, 0, 1)"></use><use xlink:href="#SvgjsPath1550" x="150" y="270" stroke="rgba(0, 0, 0, 1)"></use><use xlink:href="#SvgjsPath1545" x="150" y="330" stroke="rgba(0, 0, 0, 1)"></use><use xlink:href="#SvgjsPath1550" x="150" y="390" stroke="rgba(0, 0, 0, 1)"></use><use xlink:href="#SvgjsPath1546" x="150" y="450" stroke="rgba(0, 0, 0, 1)"></use><use xlink:href="#SvgjsPath1549" x="150" y="510" stroke="rgba(0, 0, 0, 1)"></use><use xlink:href="#SvgjsPath1550" x="150" y="570" stroke="rgba(0, 0, 0, 1)"></use><use xlink:href="#SvgjsPath1547" x="150" y="630" stroke="rgba(0, 0, 0, 1)"></use><use xlink:href="#SvgjsPath1549" x="150" y="690" stroke="rgba(0, 0, 0, 1)"></use><use xlink:href="#SvgjsPath1549" x="210" y="30" stroke="rgba(0, 0, 0, 1)"></use><use xlink:href="#SvgjsPath1550" x="210" y="90" stroke="rgba(0, 0, 0, 1)"></use><use xlink:href="#SvgjsPath1550" x="210" y="150" stroke="rgba(0, 0, 0, 1)"></use><use xlink:href="#SvgjsPath1545" x="210" y="210" stroke="rgba(0, 0, 0, 1)"></use><use xlink:href="#SvgjsPath1547" x="210" y="270" stroke="rgba(0, 0, 0, 1)"></use><use xlink:href="#SvgjsPath1549" x="210" y="330" stroke="rgba(0, 0, 0, 1)"></use><use xlink:href="#SvgjsPath1545" x="210" y="390" stroke="rgba(0, 0, 0, 1)"></use><use xlink:href="#SvgjsPath1550" x="210" y="450" stroke="rgba(0, 0, 0, 1)"></use><use xlink:href="#SvgjsPath1549" x="210" y="510" stroke="rgba(0, 0, 0, 1)"></use><use xlink:href="#SvgjsPath1545" x="210" y="570" stroke="rgba(0, 0, 0, 1)"></use><use xlink:href="#SvgjsPath1549" x="210" y="630" stroke="rgba(0, 0, 0, 1)"></use><use xlink:href="#SvgjsPath1545" x="210" y="690" stroke="rgba(0, 0, 0, 1)"></use><use xlink:href="#SvgjsPath1548" x="270" y="30" stroke="rgba(0, 0, 0, 1)" stroke-width="3"></use><use xlink:href="#SvgjsPath1548" x="270" y="90" stroke="rgba(0, 0, 0, 1)" stroke-width="3"></use><use xlink:href="#SvgjsPath1550" x="270" y="150" stroke="rgba(0, 0, 0, 1)"></use><use xlink:href="#SvgjsPath1550" x="270" y="210" stroke="rgba(0, 0, 0, 1)"></use><use xlink:href="#SvgjsPath1546" x="270" y="270" stroke="rgba(0, 0, 0, 1)"></use><use xlink:href="#SvgjsPath1546" x="270" y="330" stroke="rgba(0, 0, 0, 1)"></use><use xlink:href="#SvgjsPath1550" x="270" y="390" stroke="rgba(0, 0, 0, 1)"></use><use xlink:href="#SvgjsPath1549" x="270" y="450" stroke="rgba(0, 0, 0, 1)"></use><use xlink:href="#SvgjsPath1549" x="270" y="510" stroke="rgba(0, 0, 0, 1)"></use><use xlink:href="#SvgjsPath1545" x="270" y="570" stroke="rgba(0, 0, 0, 1)"></use><use xlink:href="#SvgjsPath1550" x="270" y="630" stroke="rgba(0, 0, 0, 1)"></use><use xlink:href="#SvgjsPath1550" x="270" y="690" stroke="rgba(0, 0, 0, 1)"></use><use xlink:href="#SvgjsPath1547" x="330" y="30" stroke="rgba(0, 0, 0, 1)"></use><use xlink:href="#SvgjsPath1547" x="330" y="90" stroke="rgba(0, 0, 0, 1)"></use><use xlink:href="#SvgjsPath1545" x="330" y="150" stroke="rgba(0, 0, 0, 1)"></use><use xlink:href="#SvgjsPath1549" x="330" y="210" stroke="rgba(0, 0, 0, 1)"></use><use xlink:href="#SvgjsPath1546" x="330" y="270" stroke="rgba(0, 0, 0, 1)"></use><use xlink:href="#SvgjsPath1547" x="330" y="330" stroke="rgba(0, 0, 0, 1)"></use><use xlink:href="#SvgjsPath1550" x="330" y="390" stroke="rgba(0, 0, 0, 1)"></use><use xlink:href="#SvgjsPath1549" x="330" y="450" stroke="rgba(0, 0, 0, 1)"></use><use xlink:href="#SvgjsPath1549" x="330" y="510" stroke="rgba(0, 0, 0, 1)"></use><use xlink:href="#SvgjsPath1546" x="330" y="570" stroke="rgba(0, 0, 0, 1)"></use><use xlink:href="#SvgjsPath1549" x="330" y="630" stroke="rgba(0, 0, 0, 1)"></use><use xlink:href="#SvgjsPath1546" x="330" y="690" stroke="rgba(0, 0, 0, 1)"></use><use xlink:href="#SvgjsPath1549" x="390" y="30" stroke="rgba(0, 0, 0, 1)"></use><use xlink:href="#SvgjsPath1549" x="390" y="90" stroke="rgba(0, 0, 0, 1)"></use><use xlink:href="#SvgjsPath1550" x="390" y="150" stroke="rgba(0, 0, 0, 1)"></use><use xlink:href="#SvgjsPath1549" x="390" y="210" stroke="rgba(0, 0, 0, 1)"></use><use xlink:href="#SvgjsPath1546" x="390" y="270" stroke="rgba(0, 0, 0, 1)"></use><use xlink:href="#SvgjsPath1549" x="390" y="330" stroke="rgba(0, 0, 0, 1)"></use><use xlink:href="#SvgjsPath1550" x="390" y="390" stroke="rgba(0, 0, 0, 1)"></use><use xlink:href="#SvgjsPath1550" x="390" y="450" stroke="rgba(0, 0, 0, 1)"></use><use xlink:href="#SvgjsPath1550" x="390" y="510" stroke="rgba(0, 0, 0, 1)"></use><use xlink:href="#SvgjsPath1550" x="390" y="570" stroke="rgba(0, 0, 0, 1)"></use><use xlink:href="#SvgjsPath1546" x="390" y="630" stroke="rgba(0, 0, 0, 1)"></use><use xlink:href="#SvgjsPath1546" x="390" y="690" stroke="rgba(0, 0, 0, 1)"></use><use xlink:href="#SvgjsPath1546" x="450" y="30" stroke="rgba(0, 0, 0, 1)"></use><use xlink:href="#SvgjsPath1546" x="450" y="90" stroke="rgba(0, 0, 0, 1)"></use><use xlink:href="#SvgjsPath1549" x="450" y="150" stroke="rgba(0, 0, 0, 1)"></use><use xlink:href="#SvgjsPath1549" x="450" y="210" stroke="rgba(0, 0, 0, 1)"></use><use xlink:href="#SvgjsPath1546" x="450" y="270" stroke="rgba(0, 0, 0, 1)"></use><use xlink:href="#SvgjsPath1549" x="450" y="330" stroke="rgba(0, 0, 0, 1)"></use><use xlink:href="#SvgjsPath1549" x="450" y="390" stroke="rgba(0, 0, 0, 1)"></use><use xlink:href="#SvgjsPath1550" x="450" y="450" stroke="rgba(0, 0, 0, 1)"></use><use xlink:href="#SvgjsPath1550" x="450" y="510" stroke="rgba(0, 0, 0, 1)"></use><use xlink:href="#SvgjsPath1545" x="450" y="570" stroke="rgba(0, 0, 0, 1)"></use><use xlink:href="#SvgjsPath1549" x="450" y="630" stroke="rgba(0, 0, 0, 1)"></use><use xlink:href="#SvgjsPath1546" x="450" y="690" stroke="rgba(0, 0, 0, 1)"></use><use xlink:href="#SvgjsPath1549" x="510" y="30" stroke="rgba(0, 0, 0, 1)"></use><use xlink:href="#SvgjsPath1549" x="510" y="90" stroke="rgba(0, 0, 0, 1)"></use><use xlink:href="#SvgjsPath1549" x="510" y="150" stroke="rgba(0, 0, 0, 1)"></use><use xlink:href="#SvgjsPath1545" x="510" y="210" stroke="rgba(0, 0, 0, 1)"></use><use xlink:href="#SvgjsPath1549" x="510" y="270" stroke="rgba(0, 0, 0, 1)"></use><use xlink:href="#SvgjsPath1547" x="510" y="330" stroke="rgba(0, 0, 0, 1)"></use><use xlink:href="#SvgjsPath1549" x="510" y="390" stroke="rgba(0, 0, 0, 1)"></use><use xlink:href="#SvgjsPath1549" x="510" y="450" stroke="rgba(0, 0, 0, 1)"></use><use xlink:href="#SvgjsPath1546" x="510" y="510" stroke="rgba(0, 0, 0, 1)"></use><use xlink:href="#SvgjsPath1547" x="510" y="570" stroke="rgba(0, 0, 0, 1)"></use><use xlink:href="#SvgjsPath1550" x="510" y="630" stroke="rgba(0, 0, 0, 1)"></use><use xlink:href="#SvgjsPath1548" x="510" y="690" stroke="rgba(0, 0, 0, 1)" stroke-width="3"></use><use xlink:href="#SvgjsPath1549" x="570" y="30" stroke="rgba(0, 0, 0, 1)"></use><use xlink:href="#SvgjsPath1547" x="570" y="90" stroke="rgba(0, 0, 0, 1)"></use><use xlink:href="#SvgjsPath1550" x="570" y="150" stroke="rgba(0, 0, 0, 1)"></use><use xlink:href="#SvgjsPath1545" x="570" y="210" stroke="rgba(0, 0, 0, 1)"></use><use xlink:href="#SvgjsPath1550" x="570" y="270" stroke="rgba(0, 0, 0, 1)"></use><use xlink:href="#SvgjsPath1550" x="570" y="330" stroke="rgba(0, 0, 0, 1)"></use><use xlink:href="#SvgjsPath1550" x="570" y="390" stroke="rgba(0, 0, 0, 1)"></use><use xlink:href="#SvgjsPath1550" x="570" y="450" stroke="rgba(0, 0, 0, 1)"></use><use xlink:href="#SvgjsPath1549" x="570" y="510" stroke="rgba(0, 0, 0, 1)"></use><use xlink:href="#SvgjsPath1545" x="570" y="570" stroke="rgba(0, 0, 0, 1)"></use><use xlink:href="#SvgjsPath1550" x="570" y="630" stroke="rgba(0, 0, 0, 1)"></use><use xlink:href="#SvgjsPath1547" x="570" y="690" stroke="rgba(0, 0, 0, 1)"></use><use xlink:href="#SvgjsPath1549" x="630" y="30" stroke="rgba(0, 0, 0, 1)"></use><use xlink:href="#SvgjsPath1550" x="630" y="90" stroke="rgba(0, 0, 0, 1)"></use><use xlink:href="#SvgjsPath1550" x="630" y="150" stroke="rgba(0, 0, 0, 1)"></use><use xlink:href="#SvgjsPath1549" x="630" y="210" stroke="rgba(0, 0, 0, 1)"></use><use xlink:href="#SvgjsPath1550" x="630" y="270" stroke="rgba(0, 0, 0, 1)"></use><use xlink:href="#SvgjsPath1547" x="630" y="330" stroke="rgba(0, 0, 0, 1)"></use><use xlink:href="#SvgjsPath1549" x="630" y="390" stroke="rgba(0, 0, 0, 1)"></use><use xlink:href="#SvgjsPath1546" x="630" y="450" stroke="rgba(0, 0, 0, 1)"></use><use xlink:href="#SvgjsPath1549" x="630" y="510" stroke="rgba(0, 0, 0, 1)"></use><use xlink:href="#SvgjsPath1549" x="630" y="570" stroke="rgba(0, 0, 0, 1)"></use><use xlink:href="#SvgjsPath1547" x="630" y="630" stroke="rgba(0, 0, 0, 1)"></use><use xlink:href="#SvgjsPath1550" x="630" y="690" stroke="rgba(0, 0, 0, 1)"></use><use xlink:href="#SvgjsPath1550" x="690" y="30" stroke="rgba(0, 0, 0, 1)"></use><use xlink:href="#SvgjsPath1550" x="690" y="90" stroke="rgba(0, 0, 0, 1)"></use><use xlink:href="#SvgjsPath1549" x="690" y="150" stroke="rgba(0, 0, 0, 1)"></use><use xlink:href="#SvgjsPath1545" x="690" y="210" stroke="rgba(0, 0, 0, 1)"></use><use xlink:href="#SvgjsPath1549" x="690" y="270" stroke="rgba(0, 0, 0, 1)"></use><use xlink:href="#SvgjsPath1550" x="690" y="330" stroke="rgba(0, 0, 0, 1)"></use><use xlink:href="#SvgjsPath1545" x="690" y="390" stroke="rgba(0, 0, 0, 1)"></use><use xlink:href="#SvgjsPath1550" x="690" y="450" stroke="rgba(0, 0, 0, 1)"></use><use xlink:href="#SvgjsPath1549" x="690" y="510" stroke="rgba(0, 0, 0, 1)"></use><use xlink:href="#SvgjsPath1545" x="690" y="570" stroke="rgba(0, 0, 0, 1)"></use><use xlink:href="#SvgjsPath1545" x="690" y="630" stroke="rgba(0, 0, 0, 1)"></use><use xlink:href="#SvgjsPath1545" x="690" y="690" stroke="rgba(0, 0, 0, 1)"></use></symbol></svg>